<?xml version="1.0" encoding="utf-8"?>
<!-- Generator: Adobe Illustrator 15.0.0, SVG Export Plug-In  -->
<!DOCTYPE svg PUBLIC "-//W3C//DTD SVG 1.1//EN" "http://www.w3.org/Graphics/SVG/1.1/DTD/svg11.dtd" [
	<!ENTITY ns_flows "http://ns.adobe.com/Flows/1.0/">
]>
<svg version="1.1"
	 xmlns="http://www.w3.org/2000/svg" xmlns:xlink="http://www.w3.org/1999/xlink" xmlns:a="http://ns.adobe.com/AdobeSVGViewerExtensions/3.0/"
	 x="0px" y="0px" width="110px" height="73px" viewBox="-15.42 -3.835 110 73" enable-background="new -15.42 -3.835 110 73"
	 xml:space="preserve">
<defs>
</defs>
<path fill="#0082CA" d="M0.14,47.28c0-0.778-0.071-1.565,0.013-2.334c0.245-2.217-0.097-4.876,1.029-6.507
	c1.005-1.455,3.775-1.573,5.567-2.62c9.007-5.266,18.687-4.449,28.42-3.357c1.158,0.13,2.327,0.172,3.492,0.236
	c0.972,0.053,1.946,0.057,2.917,0.121c3.841,0.253,6.416,2.153,6.125,4.499c-0.27,2.162-3.218,3.554-6.711,3.253
	c-2.325-0.2-4.71-0.632-6.973-0.305c-1.581,0.229-3.689,1.219-4.335,2.491c-1.056,2.082,0.72,3.736,2.632,4.452
	c8.481,3.175,17.073,5.377,26.099,2.088c2.188-0.797,4.404-1.555,6.663-2.105c1.291-0.315,2.838-0.569,4.009-0.141
	c1.423,0.521,3.169,1.56,3.654,2.81c0.401,1.036-0.445,3.082-1.392,4.025c-4.651,4.636-10.832,6.263-16.896,8.076
	c-9.869,2.95-19.537,2.401-29.156-1.24c-7.059-2.672-14.358-4.3-21.986-3.37c-1.869,0.228-2.475-0.701-2.633-2.216
	C0.404,52.525,0.221,49.906,0,47.29C0.047,47.287,0.093,47.283,0.14,47.28z"/>
<path fill="#0082CA" d="M75.823,44.634c-2.421-1.092-4.511-2.034-6.843-3.086c0-11.307,0-22.777,0-34.469
	c-5.126,0-34.193,0.03-39.502,0.03c0,6.54,0,13.022,0,19.664c-2.325,0-4.323,0-6.549,0c-0.125-0.855-0.321-1.584-0.324-2.314
	c-0.027-6.625-0.051-13.25-0.012-19.875c0.021-3.623,0.949-4.564,4.49-4.569c14.809-0.02,29.618-0.019,44.428,0.008
	c3.087,0.006,4.283,1.037,4.292,3.851C75.848,17.408,75.823,30.944,75.823,44.634z"/>
</svg>
