<?xml version="1.0" encoding="utf-8"?>
<!-- Generator: Adobe Illustrator 15.0.0, SVG Export Plug-In  -->
<!DOCTYPE svg PUBLIC "-//W3C//DTD SVG 1.1//EN" "http://www.w3.org/Graphics/SVG/1.1/DTD/svg11.dtd" [
	<!ENTITY ns_flows "http://ns.adobe.com/Flows/1.0/">
]>
<svg version="1.1"
	 xmlns="http://www.w3.org/2000/svg" xmlns:xlink="http://www.w3.org/1999/xlink" xmlns:a="http://ns.adobe.com/AdobeSVGViewerExtensions/3.0/"
	 x="0px" y="0px" width="110px" height="80px" viewBox="-14.609 -3.086 110 80" enable-background="new -14.609 -3.086 110 80"
	 xml:space="preserve">
<defs>
</defs>
<path fill="#0082CA" d="M32.729,27.981h-8.771V17.466H0v54.946h58.201V17.466H32.729V27.981z M31.58,38.425l5.634,6.93h-3.368
	v11.693h-4.541V45.355h-3.262L31.58,38.425z M50.147,65.168H25.616v-4.476h24.531V65.168z M44.717,38.425l5.535,6.93H46.99v11.693
	h-4.549V45.355h-3.363L44.717,38.425z M24.154,12.572H0.512L21.762,0h22.695L24.154,12.572z M77.844,4.544v50.398L62.72,71.367
	V16.422L77.844,4.544z M76.772,0L59.389,12.572H35.154L54.237,0H76.772z"/>
</svg>
