<?xml version="1.0" encoding="utf-8"?>
<!-- Generator: Adobe Illustrator 15.0.0, SVG Export Plug-In  -->
<!DOCTYPE svg PUBLIC "-//W3C//DTD SVG 1.1//EN" "http://www.w3.org/Graphics/SVG/1.1/DTD/svg11.dtd" [
	<!ENTITY ns_flows "http://ns.adobe.com/Flows/1.0/">
]>
<svg version="1.1"
	 xmlns="http://www.w3.org/2000/svg" xmlns:xlink="http://www.w3.org/1999/xlink" xmlns:a="http://ns.adobe.com/AdobeSVGViewerExtensions/3.0/"
	 x="0px" y="0px" width="110px" height="82px" viewBox="-3.883 -2.314 110 82" enable-background="new -3.883 -2.314 110 82"
	 xml:space="preserve">
<defs>
</defs>
<path fill="#0082CA" d="M100.402,36.118c-0.002,5.472-0.061,10.946,0.026,16.417c0.036,2.246-0.835,3.121-3.084,3.108
	c-10.712-0.061-21.425-0.069-32.137-0.003c-2.247,0.014-3.212-0.914-3.21-3.078c0.013-11.177,0.021-22.354,0.018-33.532
	c0-2.123,0.854-3.166,3.143-3.153c10.712,0.062,21.425,0.062,32.137-0.004c2.536-0.016,3.166,1.226,3.135,3.479
	C100.353,24.939,100.404,30.529,100.402,36.118z M89.658,27.584c-0.805,0-1.684-0.205-2.397,0.051
	c-0.937,0.335-1.744,1.034-2.606,1.577c0.859,0.676,1.633,1.716,2.598,1.941c1.418,0.331,3.025,0.313,4.447-0.012
	c0.859-0.197,1.52-1.258,2.27-1.931c-0.746-0.54-1.433-1.222-2.259-1.572C91.125,27.39,90.35,27.59,89.658,27.584z M73.197,31.188
	c0,0.019,0,0.037,0,0.054c0.576,0,1.247,0.192,1.707-0.038c1.061-0.53,2.018-1.264,3.017-1.916c-0.956-0.569-1.854-1.44-2.881-1.635
	c-1.44-0.274-3.021-0.25-4.456,0.049c-0.756,0.157-1.333,1.17-1.99,1.796c0.614,0.563,1.144,1.375,1.867,1.624
	C71.282,31.406,72.277,31.188,73.197,31.188z"/>
<path fill="#0082CA" d="M50.166,61.197c-1.198-3.703,2.119-8.995-3.842-9.963c0-10.087,0-19.935,0-30.013
	c-3.008,0.737-3.318,3.068-3.894,5.294c-0.349,1.353-0.988,2.63-1.497,3.941c-0.688-1.246-1.376-2.493-2.379-4.308
	c-7.816-1.664-16.303-1.708-24.601,0.005c-1.093,1.529,0.853,4.964-3.219,4.09c-0.138-3.457,0.319-7.147-3.958-9.25
	c0,10.298,0,20.153,0,30.334c-4.686,0.238-3.664,4.015-3.737,7.2c-0.063,2.758-0.058,2.758-3.004,2.476
	c0-7.873-0.001-15.777,0-23.682c0.001-6.296,0.098-12.595-0.034-18.889c-0.059-2.749,1.014-3.716,3.693-3.706
	c15.158,0.057,30.316,0.029,45.475-0.001c2.454-0.005,3.52,0.961,3.503,3.557c-0.085,13.525-0.052,27.051-0.024,40.577
	C52.651,60.57,52.618,62.033,50.166,61.197z"/>
<path fill="#0082CA" d="M11.65,73.821c-0.179,5.019-3.801,3.213-6.227,3.348c-2.927,0.163-2.378-2.217-2.406-4.013
	c-0.035-2.19-0.009-4.381-0.009-6.887c3.25,0,6.23,0,9.753,0c0-5.612,0.167-10.928-0.063-16.227
	c-0.133-3.061,0.817-4.103,3.922-4.007c6.522,0.2,13.059,0.165,19.584,0.006c2.929-0.071,4.177,0.692,4.011,3.908
	c-0.269,5.216-0.072,10.456-0.072,16.117c3.293,0,6.361,0,9.758,0c0,2.842-0.014,5.262,0.004,7.68
	c0.012,1.679,0.112,3.708-2.268,3.393c-2.157-0.286-5.465,1.893-6.201-2.328c-0.054-0.311-0.236-0.6-0.395-0.989
	C31.326,73.821,21.672,73.821,11.65,73.821z M36.233,50.627c-6.644,0-12.611,0-18.751,0C19.098,52.679,33.106,52.913,36.233,50.627z
	 M17.357,55.973c2.039,2.265,16.181,2.286,18.475,0C29.563,55.973,23.666,55.973,17.357,55.973z M17.665,61.525
	c-0.004,0.33-0.008,0.659-0.011,0.988c5.93,0,11.861,0,17.792,0c-0.002-0.329-0.004-0.658-0.006-0.988
	C29.516,61.525,23.59,61.525,17.665,61.525z"/>
<path fill="#0082CA" d="M1.577,4.553c0-1.572,0-2.935,0-4.553c33.499,0,66.972,0,100.657,0c0,1.474,0,2.911,0,4.553
	C68.759,4.553,35.377,4.553,1.577,4.553z"/>
<path fill="#0082CA" d="M56.933,67.458c0-1.555,0-2.91,0-4.492c15.077,0,30.027,0,45.251,0c0,1.414,0,2.842,0,4.492
	C87.237,67.458,72.281,67.458,56.933,67.458z"/>
<path fill="#0082CA" d="M13.664,34.421c8.589,0,16.92,0,25.506,0c0,2.623,0,5.096,0,7.775c-8.479,0-16.896,0-25.506,0
	C13.664,39.62,13.664,37.219,13.664,34.421z"/>
<path fill="#0082CA" d="M47.128,60.763c-1.522,0-3.085,0-4.813,0c0-1.452,0-2.799,0-4.137
	C47.248,55.226,48.041,55.875,47.128,60.763z"/>
<path fill="#0082CA" d="M10.591,56.232c0,1.646,0,2.897,0,4.44c-1.572,0-3.101,0-4.875,0c0-1.412,0-2.83,0-4.44
	C7.381,56.232,8.839,56.232,10.591,56.232z"/>
</svg>
