<?xml version="1.0" encoding="utf-8"?>
<!-- Generator: Adobe Illustrator 15.0.0, SVG Export Plug-In  -->
<!DOCTYPE svg PUBLIC "-//W3C//DTD SVG 1.1//EN" "http://www.w3.org/Graphics/SVG/1.1/DTD/svg11.dtd" [
	<!ENTITY ns_flows "http://ns.adobe.com/Flows/1.0/">
]>
<svg version="1.1"
	 xmlns="http://www.w3.org/2000/svg" xmlns:xlink="http://www.w3.org/1999/xlink" xmlns:a="http://ns.adobe.com/AdobeSVGViewerExtensions/3.0/"
	 x="0px" y="0px" width="331px" height="170px" viewBox="-55.696 -19.121 331 170" enable-background="new -55.696 -19.121 331 170"
	 xml:space="preserve">
<defs>
</defs>
<path fill="#0082CA" d="M196.644,52.854c-1.104,0-2.228-0.24-3.289-0.746l-77.81-35.975L37.747,52.108
	c-3.816,1.822-8.382,0.2-10.201-3.613c-1.819-3.816-0.201-8.385,3.613-10.203l81.09-37.546c2.088-0.994,4.506-0.994,6.59,0
	l81.105,37.546c3.814,1.818,5.431,6.386,3.613,10.202C202.246,51.246,199.503,52.854,196.644,52.854z M148.491,71.792h-12.641v7.487
	h-7.96v-7.487h-10.46c-1.392,0-2.529,1.139-2.529,2.529v56.807c0,1.392,1.138,2.531,2.529,2.531h31.061V71.792z M191.19,57.839
	l-75.646-34.645l-75.63,34.643c-0.255,0.124-0.524,0.177-0.78,0.281v66.375H4.479c-2.473,0-4.479,2.005-4.479,4.476
	c0,2.475,2.006,4.477,4.479,4.477c0,0,93.896-0.024,94.828-0.024c1.322,0,2.114-0.496,2.114-2.144c0-6.826,0-30.458,0-31.654
	c0-1.398-0.578-1.818-1.79-1.818c-1.213,0-2.104,0-10.578,0v6.539h-6.675v-6.539c0,0-9.413,0-10.528,0
	c-1.229,0-2.155,0.494-2.155,1.979c0,1.006,0,24.71,0,24.71h-5.57V94.797c0-1.497,1.214-2.711,2.709-2.711h8.859
	c0,0,0-30.326,0-31.913c0-1.586,1.019-2.763,2.981-2.763c1.741,0,60.746,0,73.919,0c1.657,0,2.592,1.087,2.592,2.579
	c0,1.489,0,74.106,0,74.106h36.555V58.029C191.558,57.955,191.366,57.924,191.19,57.839z"/>
</svg>
