<?xml version="1.0" encoding="utf-8"?>
<!-- Generator: Adobe Illustrator 15.0.0, SVG Export Plug-In  -->
<!DOCTYPE svg PUBLIC "-//W3C//DTD SVG 1.1//EN" "http://www.w3.org/Graphics/SVG/1.1/DTD/svg11.dtd" [
	<!ENTITY ns_flows "http://ns.adobe.com/Flows/1.0/">
]>
<svg version="1.1"
	 xmlns="http://www.w3.org/2000/svg" xmlns:xlink="http://www.w3.org/1999/xlink" xmlns:a="http://ns.adobe.com/AdobeSVGViewerExtensions/3.0/"
	 x="0px" y="0px" width="110px" height="75px" viewBox="-1.434 -2.17 110 75" enable-background="new -1.434 -2.17 110 75"
	 xml:space="preserve">
<defs>
</defs>
<path fill="#0082CA" d="M103.115,27.716c-0.578,0-1.168-0.126-1.723-0.391L60.59,8.46L19.793,27.325
	c-2.002,0.956-4.395,0.105-5.35-1.895c-0.953-2.001-0.105-4.397,1.895-5.351L58.861,0.392c1.094-0.522,2.361-0.522,3.455,0
	l42.531,19.688c2,0.954,2.848,3.349,1.895,5.35C106.055,26.873,104.615,27.716,103.115,27.716z M77.865,37.647h-6.627v3.927h-4.176
	v-3.927h-5.484c-0.73,0-1.326,0.597-1.326,1.326v29.788c0,0.73,0.596,1.328,1.326,1.328h16.287V37.647z M100.256,30.331
	L60.59,12.164L20.93,30.329c-0.133,0.065-0.275,0.093-0.408,0.148v34.806H2.348C1.051,65.283,0,66.333,0,67.63
	s1.051,2.348,2.348,2.348c0,0,49.238-0.014,49.727-0.014c0.693,0,1.109-0.26,1.109-1.123c0-3.58,0-15.973,0-16.6
	c0-0.733-0.303-0.953-0.939-0.953s-1.104,0-5.547,0v3.428h-3.5v-3.428c0,0-4.936,0-5.521,0c-0.645,0-1.129,0.258-1.129,1.037
	c0,0.527,0,12.957,0,12.957h-2.922V49.71c0-0.785,0.637-1.422,1.42-1.422h4.646c0,0,0-15.902,0-16.734
	c0-0.833,0.533-1.449,1.563-1.449c0.914,0,31.855,0,38.762,0c0.869,0,1.359,0.57,1.359,1.352c0,0.781,0,38.861,0,38.861h19.17V30.43
	C100.449,30.391,100.35,30.375,100.256,30.331z"/>
</svg>
