<?xml version="1.0" encoding="utf-8"?>
<!-- Generator: Adobe Illustrator 15.0.0, SVG Export Plug-In  -->
<!DOCTYPE svg PUBLIC "-//W3C//DTD SVG 1.1//EN" "http://www.w3.org/Graphics/SVG/1.1/DTD/svg11.dtd" [
	<!ENTITY ns_flows "http://ns.adobe.com/Flows/1.0/">
]>
<svg version="1.1"
	 xmlns="http://www.w3.org/2000/svg" xmlns:xlink="http://www.w3.org/1999/xlink" xmlns:a="http://ns.adobe.com/AdobeSVGViewerExtensions/3.0/"
	 x="0px" y="0px" width="331px" height="170px" viewBox="-89.938 -12.994 331 170" enable-background="new -89.938 -12.994 331 170"
	 xml:space="preserve">
<defs>
</defs>
<path fill="#0082CA" d="M152.18,100.004c0,0-10.958-5.571-15.554-8.271c-15.941,42.557-70.729,71.139-114.121,31.295
	c74.945,26.746,92.205-43.229,92.205-43.229l-17.091-7.622l40.319-10.778L152.18,100.004z M105.415,84.421L84.101,73.036H72.729
	v26.345h24.982C101.147,95.015,104.488,88.422,105.415,84.421z M39.65,33.347h25.161V0.371C57.732,2.195,50.81,8.614,45.39,19.027
	C43.166,23.237,41.239,28.08,39.65,33.347z M104.335,62.757c-0.424-7.984-1.5-15.892-3.194-22.8H72.729V66.42H90.73L104.335,62.757z
	 M112.191,60.839l25.212-7.416c-1.121-4.591-2.704-9.306-4.7-13.466h-23.441C110.755,46.393,111.727,53.618,112.191,60.839z
	 M107.918,33.347h21.973c-8.433-14.295-21.795-25.24-37.825-30.358c3.41,3.576,6.48,7.968,9.075,12.957
	C103.845,21.113,106.112,26.969,107.918,33.347z M93.998,19.027C88.056,7.723,80.426,1.11,72.729,0v33.347h26.973
	C98.087,28.08,96.195,23.237,93.998,19.027z M93.508,105.98H72.729v13.405C81.82,116.455,88.556,111.451,93.508,105.98z
	 M64.812,73.036H34.784c0.156,9.376,1.262,18.294,3.15,26.345h26.877V73.036z M30.075,39.957H6.634
	C2.78,48.023,0.468,56.96,0.048,66.42h26.858C27.104,57.055,28.18,48.125,30.075,39.957z M31.151,105.98l-22.33-0.006
	c0.063,0.139,0.162,0.262,0.226,0.387c5.318,7.193,14.7,12.34,27.267,14.17C34.301,116.074,32.571,111.203,31.151,105.98z
	 M26.864,73.036H0c0.286,9.393,2.448,18.278,6.13,26.345h23.689C28.005,91.207,27.015,82.328,26.864,73.036z M45.605,121.755
	c3.162,0.292,5.815,0.335,7.771,0.335c4.127,0,7.904-0.383,11.436-1.037V105.98H39.3c1.656,5.689,3.711,10.872,6.09,15.378
	C45.437,121.486,45.529,121.613,45.605,121.755z M64.812,39.957H38.198c-1.975,8.059-3.175,17.003-3.385,26.463h29.998V39.957z
	 M38.204,15.945c2.603-4.989,5.644-9.381,9.07-12.957C31.282,8.106,17.875,19.052,9.458,33.347h21.938
	C33.215,26.969,35.504,21.113,38.204,15.945z"/>
</svg>
