<?xml version="1.0" encoding="utf-8"?>
<!-- Generator: Adobe Illustrator 15.0.0, SVG Export Plug-In  -->
<!DOCTYPE svg PUBLIC "-//W3C//DTD SVG 1.1//EN" "http://www.w3.org/Graphics/SVG/1.1/DTD/svg11.dtd" [
	<!ENTITY ns_flows "http://ns.adobe.com/Flows/1.0/">
]>
<svg version="1.1"
	 xmlns="http://www.w3.org/2000/svg" xmlns:xlink="http://www.w3.org/1999/xlink" xmlns:a="http://ns.adobe.com/AdobeSVGViewerExtensions/3.0/"
	 x="0px" y="0px" width="110px" height="86px" viewBox="-12.309 -1.654 110 86" enable-background="new -12.309 -1.654 110 86"
	 xml:space="preserve">
<defs>
</defs>
<path fill="#0082CA" d="M87.756,57.669c0,0-6.318-3.212-8.969-4.77C69.594,77.44,38,93.922,12.978,70.946
	C56.195,86.37,66.148,46.017,66.148,46.017l-9.855-4.396l23.251-6.215L87.756,57.669z M60.788,48.683l-12.291-6.565h-6.558v15.191
	h14.406C58.328,54.792,60.254,50.99,60.788,48.683z M22.865,19.23h14.509V0.214c-4.082,1.052-8.075,4.753-11.2,10.758
	C24.893,13.4,23.781,16.193,22.865,19.23z M60.166,36.189c-0.244-4.604-0.865-9.164-1.842-13.147H41.939v15.26H52.32L60.166,36.189z
	 M64.696,35.084l14.539-4.277c-0.646-2.647-1.56-5.366-2.711-7.765H63.007C63.868,26.753,64.428,30.92,64.696,35.084z M62.232,19.23
	h12.67C70.04,10.987,62.334,4.675,53.09,1.724c1.967,2.063,3.737,4.594,5.234,7.472C59.883,12.176,61.19,15.552,62.232,19.23z
	 M54.205,10.973C50.777,4.454,46.378,0.64,41.939,0v19.23h15.555C56.563,16.193,55.472,13.4,54.205,10.973z M53.922,61.115H41.939
	v7.73C47.182,67.155,51.066,64.27,53.922,61.115z M37.374,42.118H20.059c0.09,5.406,0.727,10.549,1.816,15.191h15.499V42.118z
	 M17.343,23.042H3.824c-2.222,4.651-3.555,9.805-3.797,15.26h15.488C15.629,32.901,16.25,27.752,17.343,23.042z M17.963,61.115
	L5.086,61.112c0.037,0.08,0.094,0.151,0.131,0.223c3.066,4.148,8.477,7.116,15.723,8.171C19.779,66.936,18.782,64.127,17.963,61.115
	z M15.491,42.118H0c0.164,5.417,1.412,10.54,3.535,15.191h13.66C16.148,52.596,15.578,47.476,15.491,42.118z M26.299,70.212
	c1.823,0.168,3.354,0.193,4.48,0.193c2.381,0,4.559-0.221,6.595-0.598v-8.692H22.662c0.955,3.281,2.141,6.27,3.512,8.868
	C26.201,70.057,26.255,70.13,26.299,70.212z M37.374,23.042H22.027c-1.139,4.647-1.831,9.805-1.952,15.26h17.299V23.042z
	 M22.031,9.195c1.5-2.877,3.254-5.409,5.229-7.472C18.039,4.675,10.307,10.987,5.453,19.23h12.651
	C19.153,15.552,20.474,12.176,22.031,9.195z"/>
</svg>
