<?xml version="1.0" encoding="utf-8"?>
<!-- Generator: Adobe Illustrator 15.0.0, SVG Export Plug-In  -->
<!DOCTYPE svg PUBLIC "-//W3C//DTD SVG 1.1//EN" "http://www.w3.org/Graphics/SVG/1.1/DTD/svg11.dtd" [
	<!ENTITY ns_flows "http://ns.adobe.com/Flows/1.0/">
]>
<svg version="1.1"
	 xmlns="http://www.w3.org/2000/svg" xmlns:xlink="http://www.w3.org/1999/xlink" xmlns:a="http://ns.adobe.com/AdobeSVGViewerExtensions/3.0/"
	 x="0px" y="0px" width="110px" height="91px" viewBox="-10.887 -3.413 110 91" enable-background="new -10.887 -3.413 110 91"
	 xml:space="preserve">
<defs>
</defs>
<path fill="#0082CA" d="M64.3,69.547c-0.864-2.301-1.862-3.985-2.034-5.75c-0.116-1.207,0.921-2.524,1.442-3.792
	c1.233,0.593,2.918,0.874,3.598,1.852c1.089,1.567,1.343,3.687,2.267,5.402c0.783,1.456,1.84,2.871,3.086,3.946
	c2.253,1.946,2.887,4.32,2.404,7.062c-0.455,2.584-1.967,4.377-4.615,4.93c-1.379,0.287-2.808,0.457-4.215,0.465
	c-7.328,0.045-14.661-0.162-21.98,0.083c-5.581,0.187-8.996-2.246-11.231-7.206c-2.683-5.953-5.698-11.755-8.625-17.736
	c-1.49,0.422-2.812,0.797-4.579,1.297c3.444,7.045,6.767,13.843,10.233,20.936c-10.136,0-19.901,0-30.05,0
	c0.914-6.646,1.763-13.194,2.731-19.725c0.64-4.313,1.161-8.677,2.247-12.886c2.25-8.716,7.82-13.442,15.975-14.074
	c8.224-0.638,14.644,3.384,18.269,11.605c2.906,6.592,5.61,13.274,8.587,19.833c0.459,1.013,1.824,2.093,2.906,2.261
	C55.018,68.718,59.375,69.038,64.3,69.547z"/>
<path fill="#0082CA" d="M20.393,16.716c-0.109-8.961,7.25-16.521,16.27-16.712c9.073-0.192,16.727,7.336,16.787,16.513
	c0.059,8.928-7.424,16.478-16.43,16.578C28.114,33.193,20.502,25.695,20.393,16.716z"/>
<path fill="#0082CA" d="M62.239,44.157c-3.813,5.96-7.368,11.516-11.05,17.271c-1.773-2.795-1.803-4.968-0.001-7.462
	c2.745-3.799,5.178-7.833,7.604-11.85c1.297-2.146,2.65-2.753,5.086-1.622c7.419,3.448,14.927,6.707,22.422,9.991
	c1.705,0.747,3.021,1.628,1.761,3.638c-3.355,5.352-6.791,10.654-10.454,16.383c-0.872-1.265-1.549-2.246-2.411-3.497
	c2.544-4.023,5.334-8.437,8.409-13.3C76.441,50.507,69.453,47.382,62.239,44.157z"/>
</svg>
