<?xml version="1.0" encoding="utf-8"?>
<!-- Generator: Adobe Illustrator 15.0.0, SVG Export Plug-In  -->
<!DOCTYPE svg PUBLIC "-//W3C//DTD SVG 1.1//EN" "http://www.w3.org/Graphics/SVG/1.1/DTD/svg11.dtd" [
	<!ENTITY ns_flows "http://ns.adobe.com/Flows/1.0/">
]>
<svg version="1.1"
	 xmlns="http://www.w3.org/2000/svg" xmlns:xlink="http://www.w3.org/1999/xlink" xmlns:a="http://ns.adobe.com/AdobeSVGViewerExtensions/3.0/"
	 x="0px" y="0px" width="110px" height="111px" viewBox="-18.267 -3.361 110 111" enable-background="new -18.267 -3.361 110 111"
	 xml:space="preserve">
<defs>
</defs>
<path fill="#0082CA" d="M53.963,85.012c2.225-1.019,4.2-1.924,6.177-2.829c-0.152-0.435-0.305-0.87-0.456-1.306
	c-2.993,0-5.985,0-9.521,0c1.231,5.488,2.413,10.861,3.647,16.222c1.753,7.617,1.771,7.609-6.021,7.606
	c-8.538-0.004-17.075,0.006-25.612-0.002c-5.355-0.005-5.896-0.71-4.695-5.806c1.356-5.766,2.662-11.543,3.981-17.318
	c0.024-0.105-0.056-0.233-0.177-0.683c-2.975,0-6.047,0-9.295,0c0.414,3.602,3.236,3.136,5.467,3.389
	c1.264,6.345,0.581,7.242-5.371,7.246c-8.505,0.005-8.432,0.913-8.334-8.145c0.012-0.988,0.002-1.977,0.002-3.253
	c-3.599-0.591-3.767-3.177-3.754-6.227c0.09-22.89,0.051-45.781,0.058-68.671c0.001-5.021,0.204-5.228,5.235-5.23
	C25.709-0.002,46.125-0.002,66.54,0.006c4.836,0.001,4.977,0.146,4.979,5.018c0.01,23.138,0.023,46.275-0.012,69.413
	c-0.004,2.085,0.715,4.582-2.552,5.371c-0.532,0.128-0.888,2.052-0.888,3.146c0,9.632,0.223,8.561-8.705,8.573
	C53.755,91.535,52.969,90.484,53.963,85.012z M66.046,5.599c-20.37,0-40.324,0-60.293,0c0,20.607,0,40.927,0,61.202
	c20.275,0,40.246,0,60.293,0C66.046,46.292,66.046,26.047,66.046,5.599z M49.612,99.745c-2.011-8.864-3.936-17.476-5.97-26.062
	c-0.148-0.626-1.072-1.505-1.657-1.522c-4.521-0.126-9.049-0.069-13.521-0.069c-2.174,9.437-4.236,18.392-6.37,27.653
	C31.422,99.745,40.359,99.745,49.612,99.745z"/>
<path fill="#0082CA" d="M34.839,63.081c-7.859,0-15.582,0-23.514,0c0-7.559,0-14.924,0-22.539c7.769,0,15.496,0,23.514,0
	C34.839,47.984,34.839,55.428,34.839,63.081z"/>
<path fill="#0082CA" d="M39.765,63.007c0-6.596,0-12.971,0-19.54c6.936,0,13.672,0,20.635,0c0,6.505,0,12.881,0,19.54
	C53.599,63.007,46.868,63.007,39.765,63.007z"/>
<path fill="#0082CA" d="M11.473,21.713c5.385,0,10.512,0,15.839,0c0,4.945,0,9.708,0,14.792c-5.205,0-10.409,0-15.839,0
	C11.473,31.683,11.473,26.924,11.473,21.713z"/>
</svg>
