<?xml version="1.0" encoding="utf-8"?>
<!-- Generator: Adobe Illustrator 15.0.0, SVG Export Plug-In . SVG Version: 6.00 Build 0)  -->
<!DOCTYPE svg PUBLIC "-//W3C//DTD SVG 1.1//EN" "http://www.w3.org/Graphics/SVG/1.1/DTD/svg11.dtd">
<svg version="1.1" id="Layer_1" xmlns="http://www.w3.org/2000/svg" xmlns:xlink="http://www.w3.org/1999/xlink" x="0px" y="0px"
	 width="327.887px" height="90.582px" viewBox="0 0 315 90.582" enable-background="new 0 0 327.887 90.582"
	 xml:space="preserve">
<g>
	<g>
		<path fill="#FFFFFF" d="M104.855,7.67l0.311,6.584h-0.787c-0.152-1.159-0.359-1.987-0.621-2.484
			c-0.428-0.801-0.998-1.391-1.707-1.771c-0.713-0.379-1.646-0.569-2.807-0.569h-3.955v21.451c0,1.727,0.186,2.803,0.559,3.23
			c0.525,0.579,1.332,0.869,2.424,0.869h0.973v0.767H87.338V34.98h0.994c1.188,0,2.029-0.358,2.525-1.076
			c0.305-0.441,0.457-1.449,0.457-3.023V9.43h-3.375c-1.313,0-2.244,0.097-2.797,0.29c-0.717,0.263-1.332,0.766-1.842,1.512
			c-0.512,0.745-0.814,1.753-0.912,3.022h-0.787l0.332-6.584H104.855z"/>
		<path fill="#FFFFFF" d="M145.916,7.67v0.766c-0.732,0-1.326,0.132-1.781,0.394c-0.455,0.263-0.891,0.753-1.305,1.471
			c-0.275,0.482-0.711,1.636-1.305,3.457l-7.826,22.632h-0.828l-6.398-17.952l-6.357,17.952h-0.744l-8.346-23.314
			c-0.621-1.739-1.014-2.768-1.18-3.085c-0.277-0.525-0.652-0.915-1.129-1.17c-0.477-0.256-1.121-0.384-1.936-0.384V7.67h10.395
			v0.766h-0.498c-0.73,0-1.291,0.166-1.676,0.497c-0.387,0.332-0.58,0.732-0.58,1.201c0,0.483,0.303,1.595,0.91,3.333l5.529,15.758
			l4.658-13.396l-0.828-2.361l-0.662-1.884c-0.289-0.689-0.615-1.297-0.973-1.822c-0.18-0.262-0.4-0.482-0.664-0.662
			c-0.344-0.249-0.689-0.428-1.035-0.538c-0.262-0.083-0.676-0.125-1.242-0.125V7.67h10.934v0.766h-0.746
			c-0.773,0-1.34,0.166-1.697,0.497c-0.359,0.332-0.539,0.78-0.539,1.346c0,0.704,0.311,1.934,0.932,3.686l5.385,15.261
			l5.342-15.468c0.607-1.711,0.91-2.898,0.91-3.561c0-0.318-0.1-0.614-0.299-0.891c-0.201-0.276-0.453-0.47-0.756-0.58
			c-0.525-0.193-1.209-0.29-2.051-0.29V7.67H145.916z"/>
		<path fill="#FFFFFF" d="M159.332,34.98v0.767h-12.029V34.98h0.994c1.158,0,2.002-0.338,2.525-1.015
			c0.332-0.441,0.498-1.504,0.498-3.188V12.64c0-1.422-0.09-2.361-0.27-2.816c-0.139-0.345-0.422-0.642-0.85-0.891
			c-0.607-0.331-1.242-0.497-1.904-0.497h-0.994V7.67h12.029v0.766h-1.014c-1.146,0-1.98,0.339-2.506,1.015
			c-0.346,0.442-0.518,1.505-0.518,3.189v18.138c0,1.422,0.09,2.36,0.27,2.816c0.137,0.345,0.428,0.642,0.869,0.89
			c0.594,0.332,1.223,0.497,1.885,0.497H159.332z"/>
		<path fill="#FFFFFF" d="M159.809,7.67h7.621l17.164,21.058V12.536c0-1.726-0.193-2.803-0.58-3.23
			c-0.51-0.58-1.318-0.87-2.422-0.87h-0.973V7.67h9.773v0.766h-0.994c-1.188,0-2.029,0.359-2.527,1.077
			c-0.303,0.441-0.455,1.449-0.455,3.023v23.667h-0.746l-18.51-22.611v17.289c0,1.727,0.186,2.803,0.559,3.23
			c0.523,0.579,1.332,0.869,2.422,0.869h0.994v0.767h-9.773V34.98h0.975c1.199,0,2.049-0.358,2.547-1.076
			c0.303-0.441,0.455-1.449,0.455-3.023V11.355c-0.814-0.952-1.434-1.581-1.854-1.885c-0.422-0.303-1.039-0.586-1.854-0.849
			c-0.4-0.124-1.008-0.187-1.822-0.187V7.67z"/>
		<path fill="#FFFFFF" d="M227.125,7.028l0.641,9.545h-0.641c-0.857-2.857-2.078-4.914-3.666-6.17s-3.492-1.885-5.715-1.885
			c-1.863,0-3.547,0.474-5.053,1.419c-1.504,0.945-2.688,2.453-3.551,4.523c-0.863,2.071-1.293,4.646-1.293,7.724
			c0,2.54,0.406,4.741,1.221,6.605c0.814,1.863,2.039,3.292,3.676,4.286c1.635,0.994,3.502,1.49,5.602,1.49
			c1.82,0,3.43-0.39,4.824-1.17c1.393-0.779,2.926-2.329,4.596-4.648l0.643,0.415c-1.408,2.498-3.051,4.327-4.928,5.486
			c-1.879,1.16-4.107,1.739-6.689,1.739c-4.65,0-8.254-1.726-10.809-5.176c-1.904-2.568-2.857-5.591-2.857-9.069
			c0-2.803,0.629-5.377,1.885-7.724s2.984-4.165,5.188-5.456c2.201-1.291,4.607-1.936,7.215-1.936c2.029,0,4.031,0.496,6.006,1.49
			c0.58,0.304,0.994,0.456,1.242,0.456c0.373,0,0.697-0.132,0.973-0.394c0.359-0.373,0.615-0.891,0.766-1.553H227.125z"/>
		<path fill="#FFFFFF" d="M242.965,34.98v0.767h-12.031V34.98h0.994c1.16,0,2.002-0.338,2.525-1.015
			c0.332-0.441,0.498-1.504,0.498-3.188V12.64c0-1.422-0.09-2.361-0.27-2.816c-0.139-0.345-0.422-0.642-0.85-0.891
			c-0.607-0.331-1.242-0.497-1.904-0.497h-0.994V7.67h12.031v0.766h-1.016c-1.146,0-1.98,0.339-2.506,1.015
			c-0.344,0.442-0.518,1.505-0.518,3.189v18.138c0,1.422,0.09,2.36,0.27,2.816c0.139,0.345,0.428,0.642,0.869,0.89
			c0.594,0.332,1.223,0.497,1.885,0.497H242.965z"/>
		<path fill="#FFFFFF" d="M268.535,7.67l0.311,6.584h-0.785c-0.152-1.159-0.359-1.987-0.623-2.484
			c-0.428-0.801-0.996-1.391-1.707-1.771c-0.711-0.379-1.646-0.569-2.807-0.569h-3.953v21.451c0,1.727,0.186,2.803,0.559,3.23
			c0.523,0.579,1.332,0.869,2.422,0.869h0.973v0.767h-11.906V34.98h0.994c1.188,0,2.029-0.358,2.527-1.076
			c0.303-0.441,0.455-1.449,0.455-3.023V9.43h-3.375c-1.313,0-2.244,0.097-2.795,0.29c-0.719,0.263-1.332,0.766-1.844,1.512
			c-0.51,0.745-0.814,1.753-0.91,3.022h-0.787l0.332-6.584H268.535z"/>
		<path fill="#FFFFFF" d="M290.111,7.67h9.795v0.766h-0.539c-0.359,0-0.883,0.159-1.574,0.477c-0.689,0.317-1.318,0.773-1.883,1.366
			c-0.566,0.594-1.264,1.561-2.092,2.899l-6.771,10.663v7.04c0,1.727,0.193,2.803,0.58,3.23c0.523,0.579,1.354,0.869,2.484,0.869
			h0.912v0.767h-11.928V34.98h0.994c1.188,0,2.029-0.358,2.525-1.076c0.305-0.441,0.457-1.449,0.457-3.023v-6.646l-7.703-11.761
			c-0.912-1.38-1.529-2.243-1.854-2.589c-0.324-0.345-0.998-0.759-2.02-1.242c-0.275-0.138-0.676-0.207-1.199-0.207V7.67h12.008
			v0.766h-0.621c-0.648,0-1.246,0.152-1.791,0.456s-0.816,0.759-0.816,1.366c0,0.497,0.42,1.395,1.262,2.692l5.859,9.048
			l5.508-8.654c0.828-1.298,1.244-2.265,1.244-2.899c0-0.387-0.102-0.731-0.301-1.035c-0.201-0.304-0.486-0.542-0.859-0.715
			c-0.373-0.172-0.932-0.259-1.678-0.259V7.67z"/>
	</g>
	<polygon fill="#FFFFFF" points="324.375,83.496 93.311,83.496 46.633,0 58.955,0 95.311,79.539 	"/>
	<polygon fill="#FFFFFF" points="324.375,74.443 72.033,74.443 30.406,0 42.703,0 73.498,70.567 	"/>
	<polygon fill="#FFFFFF" points="324.146,51.605 31.324,51.605 0,0 11.904,0 33.352,47.987 	"/>
	<polygon fill="#FFFFFF" points="324.146,64.235 51.006,64.235 15.074,0 26.875,0 52.539,60.303 	"/>
</g>
</svg>
