<?xml version="1.0" encoding="utf-8"?>
<!-- Generator: Adobe Illustrator 15.0.0, SVG Export Plug-In  -->
<!DOCTYPE svg PUBLIC "-//W3C//DTD SVG 1.1//EN" "http://www.w3.org/Graphics/SVG/1.1/DTD/svg11.dtd" [
	<!ENTITY ns_flows "http://ns.adobe.com/Flows/1.0/">
]>
<svg version="1.1"
	 xmlns="http://www.w3.org/2000/svg" xmlns:xlink="http://www.w3.org/1999/xlink" xmlns:a="http://ns.adobe.com/AdobeSVGViewerExtensions/3.0/"
	 x="0px" y="0px" width="366px" height="98px" viewBox="-0.2 -0.2 366 98" style="enable-background:new -0.2 -0.2 366 98;"
	 xml:space="preserve">
<style type="text/css">
<![CDATA[
	.st0{fill:#FFFFFF;}
	.st1{fill:#005295;}
	.st2{fill:#0093D0;}
	.st3{fill:#0096D6;}
	.st4{fill:#00BCE4;}
	.st5{fill:#DBDCDD;}
]]>
</style>
<defs>
</defs>
<path class="st1" d="M120.8,8.6l0.3,7.3h-0.9c-0.2-1.3-0.4-2.2-0.7-2.8c-0.5-0.9-1.1-1.6-1.9-2c-0.8-0.4-1.8-0.6-3.1-0.6h-4.4v23.9
	c0,1.9,0.2,3.1,0.6,3.6c0.6,0.6,1.5,1,2.7,1h1.1v0.9h-13.3V39h1.1c1.3,0,2.3-0.4,2.8-1.2c0.3-0.5,0.5-1.6,0.5-3.4V10.5h-3.8
	c-1.5,0-2.5,0.1-3.1,0.3c-0.8,0.3-1.5,0.9-2.1,1.7c-0.6,0.8-0.9,2-1,3.4h-0.9l0.4-7.3H120.8z"/>
<path class="st1" d="M166.6,8.6v0.9c-0.8,0-1.5,0.1-2,0.4c-0.5,0.3-1,0.8-1.5,1.6c-0.3,0.5-0.8,1.8-1.5,3.9L153,40.6H152l-7.1-20
	l-7.1,20H137l-9.3-26c-0.7-1.9-1.1-3.1-1.3-3.4c-0.3-0.6-0.7-1-1.3-1.3c-0.5-0.3-1.3-0.4-2.2-0.4V8.6h11.6v0.9H134
	c-0.8,0-1.4,0.2-1.9,0.6c-0.4,0.4-0.6,0.8-0.6,1.3c0,0.5,0.3,1.8,1,3.7l6.2,17.6l5.2-14.9l-0.9-2.6l-0.7-2.1c-0.3-0.8-0.7-1.4-1.1-2
	c-0.2-0.3-0.4-0.5-0.7-0.7c-0.4-0.3-0.8-0.5-1.2-0.6c-0.3-0.1-0.8-0.1-1.4-0.1V8.6H150v0.9h-0.8c-0.9,0-1.5,0.2-1.9,0.6
	c-0.4,0.4-0.6,0.9-0.6,1.5c0,0.8,0.3,2.2,1,4.1l6,17l6-17.3c0.7-1.9,1-3.2,1-4c0-0.4-0.1-0.7-0.3-1c-0.2-0.3-0.5-0.5-0.8-0.6
	c-0.6-0.2-1.3-0.3-2.3-0.3V8.6H166.6z"/>
<path class="st1" d="M181.5,39v0.9h-13.4V39h1.1c1.3,0,2.2-0.4,2.8-1.1c0.4-0.5,0.6-1.7,0.6-3.6V14.1c0-1.6-0.1-2.6-0.3-3.1
	c-0.2-0.4-0.5-0.7-0.9-1c-0.7-0.4-1.4-0.6-2.1-0.6h-1.1V8.6h13.4v0.9h-1.1c-1.3,0-2.2,0.4-2.8,1.1c-0.4,0.5-0.6,1.7-0.6,3.6v20.2
	c0,1.6,0.1,2.6,0.3,3.1c0.2,0.4,0.5,0.7,1,1c0.7,0.4,1.4,0.6,2.1,0.6H181.5z"/>
<path class="st1" d="M182.1,8.6h8.5L209.7,32V14c0-1.9-0.2-3.1-0.6-3.6c-0.6-0.6-1.5-1-2.7-1h-1.1V8.6h10.9v0.9h-1.1
	c-1.3,0-2.3,0.4-2.8,1.2c-0.3,0.5-0.5,1.6-0.5,3.4v26.4h-0.8l-20.6-25.2v19.3c0,1.9,0.2,3.1,0.6,3.6c0.6,0.6,1.5,1,2.7,1h1.1v0.9
	h-10.9V39h1.1c1.3,0,2.3-0.4,2.8-1.2c0.3-0.5,0.5-1.6,0.5-3.4V12.7c-0.9-1.1-1.6-1.8-2.1-2.1c-0.5-0.3-1.2-0.7-2.1-0.9
	c-0.4-0.1-1.1-0.2-2-0.2V8.6z"/>
<path class="st1" d="M257.2,7.8l0.7,10.6h-0.7c-1-3.2-2.3-5.5-4.1-6.9c-1.8-1.4-3.9-2.1-6.4-2.1c-2.1,0-4,0.5-5.6,1.6
	c-1.7,1.1-3,2.7-4,5c-1,2.3-1.4,5.2-1.4,8.6c0,2.8,0.5,5.3,1.4,7.4c0.9,2.1,2.3,3.7,4.1,4.8c1.8,1.1,3.9,1.7,6.2,1.7
	c2,0,3.8-0.4,5.4-1.3c1.6-0.9,3.3-2.6,5.1-5.2l0.7,0.5c-1.6,2.8-3.4,4.8-5.5,6.1c-2.1,1.3-4.6,1.9-7.5,1.9c-5.2,0-9.2-1.9-12.1-5.8
	c-2.1-2.9-3.2-6.2-3.2-10.1c0-3.1,0.7-6,2.1-8.6c1.4-2.6,3.3-4.6,5.8-6.1c2.5-1.4,5.1-2.2,8-2.2c2.3,0,4.5,0.6,6.7,1.7
	c0.6,0.3,1.1,0.5,1.4,0.5c0.4,0,0.8-0.1,1.1-0.4c0.4-0.4,0.7-1,0.9-1.7H257.2z"/>
<path class="st1" d="M274.8,39v0.9h-13.4V39h1.1c1.3,0,2.2-0.4,2.8-1.1c0.4-0.5,0.6-1.7,0.6-3.6V14.1c0-1.6-0.1-2.6-0.3-3.1
	c-0.2-0.4-0.5-0.7-0.9-1c-0.7-0.4-1.4-0.6-2.1-0.6h-1.1V8.6h13.4v0.9h-1.1c-1.3,0-2.2,0.4-2.8,1.1c-0.4,0.5-0.6,1.7-0.6,3.6v20.2
	c0,1.6,0.1,2.6,0.3,3.1c0.2,0.4,0.5,0.7,1,1c0.7,0.4,1.4,0.6,2.1,0.6H274.8z"/>
<path class="st1" d="M303.4,8.6l0.3,7.3h-0.9c-0.2-1.3-0.4-2.2-0.7-2.8c-0.5-0.9-1.1-1.6-1.9-2c-0.8-0.4-1.8-0.6-3.1-0.6h-4.4v23.9
	c0,1.9,0.2,3.1,0.6,3.6c0.6,0.6,1.5,1,2.7,1h1.1v0.9h-13.3V39h1.1c1.3,0,2.3-0.4,2.8-1.2c0.3-0.5,0.5-1.6,0.5-3.4V10.5h-3.8
	c-1.5,0-2.5,0.1-3.1,0.3c-0.8,0.3-1.5,0.9-2.1,1.7s-0.9,2-1,3.4h-0.9l0.4-7.3H303.4z"/>
<path class="st1" d="M327.4,8.6h10.9v0.9h-0.6c-0.4,0-1,0.2-1.8,0.5c-0.8,0.4-1.5,0.9-2.1,1.5c-0.6,0.7-1.4,1.7-2.3,3.2L324,26.6
	v7.9c0,1.9,0.2,3.1,0.6,3.6c0.6,0.6,1.5,1,2.8,1h1v0.9h-13.3V39h1.1c1.3,0,2.3-0.4,2.8-1.2c0.3-0.5,0.5-1.6,0.5-3.4V27L311,13.9
	c-1-1.5-1.7-2.5-2.1-2.9c-0.4-0.4-1.1-0.8-2.3-1.4c-0.3-0.2-0.8-0.2-1.3-0.2V8.6h13.4v0.9H318c-0.7,0-1.4,0.2-2,0.5
	c-0.6,0.3-0.9,0.8-0.9,1.5c0,0.6,0.5,1.6,1.4,3l6.5,10.1l6.1-9.7c0.9-1.4,1.4-2.5,1.4-3.2c0-0.4-0.1-0.8-0.3-1.2
	c-0.2-0.3-0.5-0.6-1-0.8c-0.4-0.2-1-0.3-1.9-0.3V8.6z"/>
<polygon class="st5" points="361.8,97 104.1,97 52,3.8 65.8,3.8 106.3,92.5 "/>
<polygon class="st5" points="361.8,86.9 80.3,86.9 33.9,3.8 47.6,3.8 82,82.5 "/>
<polygon class="st5" points="361.6,61.4 34.9,61.4 0,3.8 13.3,3.8 37.2,57.3 "/>
<polygon class="st5" points="361.6,75.5 56.9,75.5 16.8,3.8 30,3.8 58.6,71.1 "/>
<polygon class="st0" points="363.7,95 106,95 53.9,1.9 67.7,1.9 108.2,90.6 "/>
<polygon class="st0" points="363.7,84.9 82.3,84.9 35.8,1.9 49.5,1.9 83.9,80.6 "/>
<polygon class="st0" points="363.5,59.5 36.9,59.5 1.9,1.9 15.2,1.9 39.1,55.4 "/>
<polygon class="st0" points="363.5,73.6 58.8,73.6 18.7,1.9 31.9,1.9 60.5,69.2 "/>
<polygon class="st4" points="365.6,93.1 107.9,93.1 55.8,0 69.6,0 110.1,88.7 "/>
<polygon class="st3" points="365.6,83 84.2,83 37.7,0 51.5,0 85.8,78.7 "/>
<polygon class="st1" points="365.4,57.6 38.8,57.6 3.8,0 17.1,0 41,53.5 "/>
<polygon class="st2" points="365.4,71.6 60.7,71.6 20.6,0 33.8,0 62.4,67.3 "/>
</svg>
