<?xml version="1.0" encoding="utf-8"?>
<!-- Generator: Adobe Illustrator 15.0.0, SVG Export Plug-In  -->
<!DOCTYPE svg PUBLIC "-//W3C//DTD SVG 1.1//EN" "http://www.w3.org/Graphics/SVG/1.1/DTD/svg11.dtd" [
	<!ENTITY ns_flows "http://ns.adobe.com/Flows/1.0/">
]>
<svg version="1.1"
	 xmlns="http://www.w3.org/2000/svg" xmlns:xlink="http://www.w3.org/1999/xlink" xmlns:a="http://ns.adobe.com/AdobeSVGViewerExtensions/3.0/"
	 x="0px" y="0px" width="110px" height="98px" viewBox="-3.366 -4.322 110 98" enable-background="new -3.366 -4.322 110 98"
	 xml:space="preserve">
<defs>
</defs>
<path fill="#0082CA" d="M27.734,19.972c-1.571-7.839,0.434-13.842,6.91-17.739c5.013-3.016,10.377-2.979,15.346,0.125
	c6.287,3.928,8.234,9.849,6.664,17.614c2.646,0,5.107-0.008,7.569,0.001c5.577,0.021,7.856,2.25,7.935,7.869
	c0.055,3.986,0.011,7.974,0.011,12.019c1.198,0.108,1.954,0.342,2.643,0.212c5.271-0.993,8.668,1.452,11.683,5.55
	c3.803,5.168,7.901,10.094,13.583,13.55c1.526,0.929,2.697,3.671,2.718,5.595c0.043,4.081-0.491,8.237-1.398,12.223
	c-0.321,1.412-2.405,2.432-3.707,3.605c-0.793,0.714-2.071,1.227-2.37,2.093c-1.608,4.663-5.007,7.604-9.357,7.745
	c-4.249,0.138-8.094-2.721-9.487-7.424c-0.55-1.854-1.339-2.47-3.261-2.45c-9.298,0.096-18.597,0.083-27.895,0.009
	c-1.866-0.015-2.782,0.432-3.246,2.442c-1.044,4.531-5.021,7.557-9.366,7.539c-4.373-0.018-8.421-3.077-9.341-7.578
	c-0.438-2.148-1.461-2.519-3.247-2.373c-9.411,0.77-10.652-2.548-10.346-10.672c0.086-2.307,0.7-5.359-0.481-6.723
	c-1.078-1.244-4.295-0.501-6.501-0.96C1.777,62.035,0.926,61.044,0,60.407c0.885-0.674,1.756-1.913,2.654-1.933
	c7.287-0.158,14.581-0.148,21.869-0.007c0.855,0.017,1.69,1.142,2.535,1.753c-0.863,0.693-1.673,1.887-2.599,1.985
	c-2.612,0.277-5.276,0.186-7.913,0.084c-1.977-0.077-2.924,0.521-2.816,2.68c0.141,2.846,0.033,5.704,0.039,8.557
	c0.004,2.045,0.959,3.146,3.08,3.155c3.494,0.015,6.665,0.421,9.474-3.128c3.393-4.287,10.441-3.514,13.861,0.994
	c1.366,1.801,2.776,2.205,4.796,2.182c6.656-0.075,13.315-0.108,19.97,0.024c2.392,0.048,3.329-0.507,3.307-3.15
	c-0.128-15.109-0.053-30.219-0.076-45.329c-0.006-3.655-0.587-4.179-4.256-4.194c-1.268-0.005-2.54,0.069-3.803-0.013
	c-3.328-0.215-6.03,0.362-8.821,2.852c-5.712,5.096-13.913,4.3-19.599-0.867c-1.168-1.062-3.013-1.749-4.61-1.889
	c-3.25-0.287-6.545-0.004-9.818-0.107c-2.444-0.077-3.516,1.031-3.494,3.385c0.001,0.105-0.005,0.211-0.01,0.316
	c-0.471,9.005-0.471,9.004,8.441,9.006c3.17,0,6.349-0.119,9.504,0.095c0.879,0.06,1.688,1.118,2.53,1.718
	c-0.861,0.705-1.712,2.007-2.585,2.023c-8.345,0.155-16.694,0.153-25.039,0.008c-0.926-0.017-1.832-1.204-2.746-1.848
	c0.88-0.663,1.793-1.925,2.634-1.878c2.731,0.15,3.55-0.936,3.325-3.498c-0.176-1.992-0.059-4.013-0.024-6.02
	c0.087-4.97,2.392-7.286,7.434-7.382C20.6,19.92,23.957,19.972,27.734,19.972z M72.197,77.422c2.27-0.897,4.457-1.054,5.137-2.147
	c3.939-6.342,13.201-6.312,16.887,0.133c0.359,0.628,1.609,1.24,2.244,1.076c0.6-0.155,1.194-1.295,1.334-2.083
	c0.406-2.282,0.61-4.603,0.842-6.913c0.428-4.286-3.409-8.895-7.842-9.044c-5.487-0.186-10.987-0.12-16.477,0.039
	c-0.726,0.021-2.009,1.21-2.031,1.891C72.121,65.631,72.197,70.897,72.197,77.422z M53.114,15.242
	c0.003-6.217-4.817-11.021-11.03-10.992c-6.01,0.028-10.857,4.908-10.835,10.904c0.024,6.193,4.896,11.037,11.071,11.008
	C48.34,26.133,53.111,21.306,53.114,15.242z M72.217,44.468c0,2.805-0.063,5.617,0.056,8.422c0.022,0.514,0.769,1.42,1.196,1.43
	c4.674,0.104,9.351,0.065,14.786,0.065c-1.979-2.446-3.733-4.128-4.897-6.148C80.77,43.745,76.866,43.65,72.217,44.468z
	 M85.75,86.336c3.058,0.023,5.685-2.73,5.674-5.95c-0.01-3.129-2.436-5.671-5.48-5.741c-3.199-0.074-5.805,2.477-5.843,5.717
	C80.063,83.571,82.654,86.312,85.75,86.336z M38.399,80.742c0.029-3.091-2.485-5.766-5.501-5.853
	c-3.088-0.089-5.876,2.713-5.838,5.865c0.038,3.078,2.641,5.658,5.691,5.64C35.855,86.375,38.369,83.858,38.399,80.742z"/>
</svg>
