<?xml version="1.0" encoding="utf-8"?>
<!-- Generator: Adobe Illustrator 15.0.0, SVG Export Plug-In  -->
<!DOCTYPE svg PUBLIC "-//W3C//DTD SVG 1.1//EN" "http://www.w3.org/Graphics/SVG/1.1/DTD/svg11.dtd" [
	<!ENTITY ns_flows "http://ns.adobe.com/Flows/1.0/">
]>
<svg version="1.1"
	 xmlns="http://www.w3.org/2000/svg" xmlns:xlink="http://www.w3.org/1999/xlink" xmlns:a="http://ns.adobe.com/AdobeSVGViewerExtensions/3.0/"
	 x="0px" y="0px" width="110px" height="69px" viewBox="-4.688 -4.447 110 69" enable-background="new -4.688 -4.447 110 69"
	 xml:space="preserve">
<defs>
</defs>
<path fill="#0082CA" d="M18.028,37.504c-5.502-0.012-9.98,4.439-9.992,9.936c-0.007,5.505,4.441,9.988,9.946,9.994
	c5.509,0.013,9.979-4.437,9.985-9.938C27.979,41.991,23.534,37.517,18.028,37.504z M17.999,51.232
	c-2.041-0.005-3.688-1.658-3.688-3.704c0.008-2.029,1.668-3.677,3.707-3.674c2.033,0.006,3.682,1.658,3.676,3.701
	C21.688,49.589,20.027,51.232,17.999,51.232z M8.327,38.941c-1.426,1.61-2.455,4.31-2.934,6.48L1.661,45.42
	C0.747,45.42,0,44.671,0,43.759V40.6c0-0.913,0.747-1.659,1.661-1.659H8.327z M2.887,34.886h61.972c1.183,0,2.152-0.968,2.152-2.152
	V2.372c0-1.183-0.97-2.152-2.152-2.152H2.887c-1.183,0-2.152,0.969-2.152,2.152v30.361C0.734,33.917,1.704,34.886,2.887,34.886z
	 M49.839,6.335c0.621,0.526,0.697,1.456,0.172,2.075L33.248,28.163c-0.29,0.344-0.706,0.519-1.123,0.519
	c-0.337,0-0.675-0.113-0.952-0.35c-0.621-0.526-0.695-1.454-0.171-2.075l16.763-19.75C48.291,5.884,49.222,5.81,49.839,6.335z
	 M18.319,26.257l16.762-19.75c0.525-0.623,1.457-0.697,2.076-0.171c0.619,0.526,0.697,1.456,0.169,2.075L20.565,28.163
	c-0.29,0.344-0.705,0.519-1.123,0.519c-0.337,0-0.676-0.113-0.952-0.35C17.869,27.806,17.795,26.878,18.319,26.257z M96.813,0
	h-21.53c-2.097,0-4.529,1.715-4.529,3.811v35.13H59.551c1.467,1.661,2.614,4.373,3.077,6.503l9.817,0.006
	c1.548-6.802,6.658-10.897,12.836-10.897c3.483,0.007,6.726,1.356,9.162,3.803c1.727,1.735,3.104,4.612,3.64,6.939
	c1.586,0,2.541-1.916,2.541-3.645V3.811C100.624,1.715,98.907,0,96.813,0z M95.288,20.494c0,0.838-0.686,1.523-1.523,1.523H78.329
	c-0.838,0-1.524-0.686-1.524-1.523V6.856c0-0.837,0.687-1.523,1.524-1.523h15.436c0.838,0,1.523,0.686,1.523,1.523V20.494z
	 M40.194,38.941c-1.429,1.614-2.609,4.316-3.086,6.495l-6.35-0.004c-0.464-2.128-1.609-4.834-3.074-6.491H40.194z M49.896,37.504
	c-5.504-0.012-9.982,4.439-9.995,9.936c-0.006,5.505,4.442,9.988,9.948,9.994c5.508,0.013,9.975-4.437,9.983-9.938
	C59.847,41.991,55.399,37.517,49.896,37.504z M49.865,51.232c-2.042-0.005-3.688-1.658-3.688-3.704
	c0.006-2.029,1.668-3.677,3.706-3.674c2.033,0.006,3.683,1.658,3.674,3.701C53.554,49.589,51.894,51.232,49.865,51.232z
	 M85.309,37.507c-5.508-0.016-9.982,4.431-9.989,9.934c-0.015,5.505,4.442,9.988,9.949,9.995c5.501,0.015,9.969-4.434,9.982-9.939
	C95.267,41.991,90.815,37.514,85.309,37.507z M85.28,51.16c-2.043-0.002-3.683-1.659-3.683-3.703c0.003-2.03,1.659-3.682,3.7-3.677
	c2.033,0.004,3.688,1.655,3.681,3.698C88.973,49.514,87.313,51.16,85.28,51.16z"/>
</svg>
