<?xml version="1.0" encoding="utf-8"?>
<!-- Generator: Adobe Illustrator 15.0.0, SVG Export Plug-In  -->
<!DOCTYPE svg PUBLIC "-//W3C//DTD SVG 1.1//EN" "http://www.w3.org/Graphics/SVG/1.1/DTD/svg11.dtd" [
	<!ENTITY ns_flows "http://ns.adobe.com/Flows/1.0/">
]>
<svg version="1.1"
	 xmlns="http://www.w3.org/2000/svg" xmlns:xlink="http://www.w3.org/1999/xlink" xmlns:a="http://ns.adobe.com/AdobeSVGViewerExtensions/3.0/"
	 x="0px" y="0px" width="110px" height="96px" viewBox="-13.798 -2.523 110 96" enable-background="new -13.798 -2.523 110 96"
	 xml:space="preserve">
<defs>
</defs>
<path fill="#0082CA" d="M0.431,65.929c0-12.055,0-23.983,0-36.168c5.005,0,9.912,0,15.209,0c0,2.811,0,5.673,0,8.906
	c4.066,0,7.75,0,11.751,0c0-3.047,0-5.93,0-8.976c5.216,0,10.116,0,15.243,0c0,12.083,0,24.003,0,36.238
	C28.757,65.929,14.835,65.929,0.431,65.929z"/>
<path fill="#0082CA" d="M86.292,71.513c0,1.658,0,3.151,0,4.814c-0.984,0.258-1.926,0.504-3.059,0.801c0,2.365,0,4.74,0,7.438
	c4.339-0.273,3.194,2.68,3.125,5.428c-28.624,0-57.132,0-85.955,0c0-1.465,0-3.031,0-4.843c0.977-0.211,2.023-0.438,3.143-0.681
	c0-2.461,0-4.737,0-7.35c-4.041,0.119-3.834-2.481-3.178-5.608C28.911,71.513,57.516,71.513,86.292,71.513z M14.667,84.591
	c7.76,0,15.301,0,23.014,0c0-2.644,0-5.09,0-7.554c-7.816,0-15.359,0-23.014,0C14.667,79.673,14.667,82.02,14.667,84.591z
	 M48.964,76.903c0,2.781,0,5.134,0,7.698c7.729,0,15.262,0,22.917,0c0-2.66,0-5.108,0-7.698
	C64.177,76.903,56.729,76.903,48.964,76.903z"/>
<path fill="#0082CA" d="M48.479,34.948c4.268,0,8.191,0,12.408,0c0,2.738,0,5.363,0,8.437c4.048,0,7.803,0,11.829,0
	c0-3.041,0-5.56,0-8.317c4.282,0,8.298,0,12.576,0c0,10.238,0,20.487,0,30.954c-12.261,0-24.431,0-36.813,0
	C48.479,55.689,48.479,45.535,48.479,34.948z"/>
<path fill="#0082CA" d="M0.721,24.368c0-8.229,0-16.199,0-24.368C3.43,0,5.923,0,8.86,0c0,2.623,0,5.222,0,8c4.115,0,7.79,0,11.69,0
	c0-2.758,0-5.154,0-7.878c2.921,0,5.619,0,8.573,0c0,8.011,0,15.968,0,24.247C19.702,24.368,10.365,24.368,0.721,24.368z"/>
</svg>
