<?xml version="1.0" encoding="utf-8"?>
<!-- Generator: Adobe Illustrator 15.0.0, SVG Export Plug-In  -->
<!DOCTYPE svg PUBLIC "-//W3C//DTD SVG 1.1//EN" "http://www.w3.org/Graphics/SVG/1.1/DTD/svg11.dtd" [
	<!ENTITY ns_flows "http://ns.adobe.com/Flows/1.0/">
]>
<svg version="1.1"
	 xmlns="http://www.w3.org/2000/svg" xmlns:xlink="http://www.w3.org/1999/xlink" xmlns:a="http://ns.adobe.com/AdobeSVGViewerExtensions/3.0/"
	 x="0px" y="0px" width="331px" height="170px" viewBox="-91 -11.927 331 170" enable-background="new -91 -11.927 331 170"
	 xml:space="preserve">
<defs>
</defs>
<path fill="#0082CA" d="M0,67.366c0.344-2.553,0.584-5.122,1.047-7.652c4.599-25.198,18.541-43.39,41.887-53.716
	c40.922-18.099,88.093,6.499,97.479,50.433c8.183,38.299-16.802,76.431-55.171,84.112c-3.259,0.653-6.609,0.844-9.916,1.263
	c-0.216,0.027-0.416,0.172-0.624,0.262c-2.306,0-4.611,0-6.917,0c-0.617-0.114-1.231-0.297-1.854-0.332
	c-10.031-0.581-19.506-3.264-28.251-8.127C17.387,122.324,5.053,105.239,1.03,82.29C0.586,79.754,0.338,77.183,0,74.629
	C0,72.208,0,69.787,0,67.366z M134.342,71.101c-0.037-35.099-28.334-63.401-63.354-63.365C35.994,7.771,7.584,36.205,7.617,71.161
	c0.033,34.766,28.64,63.305,63.438,63.289C105.901,134.435,134.379,105.929,134.342,71.101z"/>
<path fill="#0082CA" d="M56.681,86.123c8.396-8.484,16.89-17.092,25.413-25.669c6.441-6.482,12.844-13.007,19.406-19.365
	c5.535-5.361,13.412-3.297,15.404,3.888c0.881,3.176-0.154,5.924-2.34,8.119c-17.336,17.42-34.698,34.814-52.131,52.138
	c-3.768,3.744-8.738,3.84-12.592,0.106c-8.778-8.507-17.449-17.132-25.962-25.905c-3.879-3.998-3.616-9.386,0.069-12.869
	c3.566-3.37,8.931-3.098,12.894,0.772c6.27,6.123,12.479,12.31,18.719,18.463C55.638,85.876,55.791,85.872,56.681,86.123z"/>
</svg>
